HIERARCHY
ROOT Hips
{
	OFFSET 0.00000 0.00000 0.00000
	CHANNELS 6 Xposition Yposition Zposition Zrotation Yrotation Xrotation 
	JOINT LHipJoint
	{
		OFFSET 0 0 0
		CHANNELS 3 Zrotation Yrotation Xrotation
		JOINT LeftHip
		{
			OFFSET 1.37959 -1.78713 0.86582
			CHANNELS 3 Zrotation Yrotation Xrotation
			JOINT LeftKnee
			{
				OFFSET 2.54611 -6.99539 0.00000
				CHANNELS 3 Zrotation Yrotation Xrotation
				JOINT LeftAnkle
				{
					OFFSET 2.59951 -7.14211 0.00000
					CHANNELS 3 Zrotation Yrotation Xrotation
					JOINT LeftToe
					{
						OFFSET 0.18493 -0.50810 1.96120
						CHANNELS 3 Zrotation Yrotation Xrotation
						End Site
						{
							OFFSET 0.00000 -0.00000 1.02054
						}
					}
				}
			}
		}
	}
	JOINT RHipJoint
	{
		OFFSET 0 0 0
		CHANNELS 3 Zrotation Yrotation Xrotation
		JOINT RightHip
		{
			OFFSET -1.33564 -1.78713 0.86582
			CHANNELS 3 Zrotation Yrotation Xrotation
			JOINT RightKnee
			{
				OFFSET -2.52705 -6.94302 0.00000
				CHANNELS 3 Zrotation Yrotation Xrotation
				JOINT RightAnkle
				{
					OFFSET -2.55964 -7.03257 0.00000
					CHANNELS 3 Zrotation Yrotation Xrotation
					JOINT RightToe
					{
						OFFSET -0.25804 -0.70896 2.12109
						CHANNELS 3 Zrotation Yrotation Xrotation
						End Site
						{
							OFFSET -0.00000 -0.00000 1.11821
						}
					}
				}
			}
		}
	}
	JOINT lowerback
	{
		OFFSET 0 0 0
		CHANNELS 3 Zrotation Yrotation Xrotation
		JOINT Chest
		{
			OFFSET -0.02031 2.24248 -0.18900
			CHANNELS 3 Zrotation Yrotation Xrotation
			JOINT Chest2
			{
				OFFSET 0.08342 2.24689 -0.03799
				CHANNELS 3 Zrotation Yrotation Xrotation
				JOINT lowerneck
				{
					OFFSET 0 0 0
					CHANNELS 3 Zrotation Yrotation Xrotation
					JOINT Neck
					{
						OFFSET -0.11607 1.55844 0.24628
						CHANNELS 3 Zrotation Yrotation Xrotation
						JOINT Head
						{
							OFFSET 0.06877 1.60174 -0.17013
							CHANNELS 3 Zrotation Yrotation Xrotation
							End Site
							{
								OFFSET 0.03358 1.61266 -0.08543
							}
						}
					}
				}
				JOINT LeftCollar
				{
					OFFSET 0 0 0
					CHANNELS 3 Zrotation Yrotation Xrotation
					JOINT LeftShoulder
					{
						OFFSET 3.47537 0.55866 -0.72348
CHANNELS 3 Zrotation Xrotation Yrotation
						JOINT LeftElbow
						{
OFFSET 0 -5.381540 0.000000
CHANNELS 3 Zrotation Xrotation Yrotation
							JOINT LeftWrist
							{
OFFSET 0 -3.333120 0.000000
CHANNELS 3 Zrotation Xrotation Yrotation
								JOINT lhand
								{
									OFFSET 0 0 0
CHANNELS 3 Zrotation Xrotation Yrotation
									JOINT LFingers
									{
OFFSET 0 -0.710790 0.000000
CHANNELS 3 Zrotation Xrotation Yrotation
										End Site
										{
OFFSET 0 -0.573060 0.000000
										}
									}
								}
								JOINT LThumb
								{
OFFSET 0 0.000000 0.000000
CHANNELS 3 Zrotation Xrotation Yrotation
									End Site
									{
OFFSET 0 -0.581810 0.581810
									}
								}
							}
						}
					}
				}
				JOINT RightCollar
				{
					OFFSET 0 0 0
					CHANNELS 3 Zrotation Yrotation Xrotation
					JOINT RightShoulder
					{
						OFFSET -3.27844 0.90739 -0.35708
CHANNELS 3 Zrotation Xrotation Yrotation
						JOINT RightElbow
						{
OFFSET 0 -5.169540 0.000000
CHANNELS 3 Zrotation Xrotation Yrotation
							JOINT RightWrist
							{
OFFSET 0 -3.382870 0.000000
CHANNELS 3 Zrotation Xrotation Yrotation
								JOINT rhand
								{
									OFFSET 0 0 0
CHANNELS 3 Zrotation Xrotation Yrotation
									JOINT RFingers
									{
OFFSET 0 -0.817970 0.000000
CHANNELS 3 Zrotation Xrotation Yrotation
										End Site
										{
OFFSET 0 -0.659470 0.000000
										}
									}
								}
								JOINT RThumb
								{
OFFSET 0 0.000000 0.000000
CHANNELS 3 Zrotation Xrotation Yrotation
									End Site
									{
OFFSET 0 -0.669530 0.669530
									}
								}
							}
						}
					}
				}
			}
		}
	}
}
MOTION
Frames: 9
Frame Time: 0.008333333333333333
8.600342 17.049032 19.005127 182.859923 -72.208616 -181.776436 0.000000 0.000000 0.000000 -3.240356 -1.045213 -13.724823 4.493709 12.789818 38.586918 1.525990 -5.261503 -22.241813 2.521659 -9.870321 -28.563645 0.000000 0.000000 0.000000 1.813767 8.577924 -14.377829 -2.979188 -10.659797 31.142548 0.374425 -13.874865 -14.436540 -0.202928 2.898085 -7.995306 -3.161515 -4.525766 12.566282 0.878384 -6.481241 2.244507 3.701614 -3.207319 -4.197224 -19.271894 -18.382324 8.013534 24.544628 -26.836662 -3.302354 8.900725 -13.941946 3.798905 0.000000 0.000000 0.000000 4.187432 8.106425 -17.248099 48.723593 -52.467529 25.158404 2.477838 9.040298 -33.628209 0.000000 0.000000 0.000000 -7.125000 0.000000 0.000000 -34.672058 60.139131 13.781616 0.000000 0.000000 0.000000 -7.658937 5.814896 37.754578 -96.726656 -59.810319 -65.821112 -18.275282 -19.061567 -18.686296 0.000000 0.000000 0.000000 7.125000 0.000000 0.000000 6.433120 10.469148 5.190822
8.608359 17.165518 19.125890 184.337319 -70.166703 -182.223563 0.000000 0.000000 0.000000 -3.554897 -2.161021 -13.402798 4.400422 12.675006 38.163843 1.573805 -2.813221 -22.980743 1.442626 -7.588537 -21.473491 0.000000 0.000000 0.000000 2.276754 9.410951 -14.209787 -2.421034 -9.691527 27.984625 0.453063 -13.932574 -13.015938 -0.095258 1.989962 -5.477968 -3.141403 -5.192142 11.358412 1.203862 -7.307183 2.150162 4.013789 -3.633194 -3.526300 -19.444287 -17.400297 7.073650 24.258980 -25.631469 -1.735067 8.915330 -13.257055 4.128750 0.000000 0.000000 0.000000 3.357707 7.433087 -23.213583 49.493248 -52.788938 25.770017 3.278413 9.467490 -31.034093 0.000000 0.000000 0.000000 -7.125000 0.000000 0.000000 -31.435398 58.161683 10.813492 0.000000 0.000000 0.000000 -9.079931 5.753606 35.661122 -111.133164 -58.231007 -78.191891 -20.815694 -16.769334 -17.873175 0.000000 0.000000 0.000000 7.125000 0.000000 0.000000 4.722982 10.995944 3.748659
8.787756 17.142445 19.399331 185.260002 -69.066492 -186.350516 0.000000 0.000000 0.000000 -4.878657 -4.811227 -9.779923 4.509400 12.809085 38.657802 1.576955 -0.269721 -23.678934 0.848698 -5.875687 -16.424254 0.000000 0.000000 0.000000 2.243236 7.807346 -10.673055 -1.856675 -8.560792 24.430963 0.405350 -12.943299 -11.708001 -0.045559 1.377027 -3.786908 -2.293809 -5.628241 18.158039 1.024839 -7.963562 2.121589 4.285835 -3.849060 -7.347523 -18.287991 -17.287739 5.437822 22.028366 -25.381336 0.872637 7.921250 -12.938999 4.619513 0.000000 0.000000 0.000000 3.683821 5.934981 -32.731365 51.375170 -53.535218 27.276268 1.805681 7.349014 -31.647365 0.000000 0.000000 0.000000 -7.125000 0.000000 0.000000 -33.414253 58.354399 11.754387 0.000000 0.000000 0.000000 -11.485028 5.598680 29.704408 -122.724562 -55.537338 -87.915450 -21.309460 -11.383151 -17.688684 0.000000 0.000000 0.000000 7.125000 0.000000 0.000000 4.386318 11.125322 3.467995
8.715583 17.283691 19.373477 184.125947 -67.165109 -183.076295 0.000000 0.000000 0.000000 -5.201724 -3.619741 -10.384060 4.045601 12.220462 36.516899 1.556318 0.231130 -23.688532 0.702585 -5.357434 -14.930816 0.000000 0.000000 0.000000 1.989277 8.797538 -11.886449 -1.592925 -7.960724 22.595067 0.368131 -12.882362 -12.436988 -0.011764 -0.355349 0.976286 -4.120120 -5.910409 14.455276 1.632318 -8.487831 1.678192 5.575320 -4.122731 -5.406509 -18.355170 -16.535245 4.786204 20.825102 -24.295704 2.081481 7.667554 -12.334456 4.704388 0.000000 0.000000 0.000000 3.640345 2.689661 -42.623828 54.118495 -54.525805 29.497105 -2.940594 4.933778 -30.089795 0.000000 0.000000 0.000000 -7.125000 0.000000 0.000000 -36.536274 56.076762 10.959521 0.000000 0.000000 0.000000 -15.163109 2.245492 21.930448 -127.641168 -53.903634 -91.930783 -23.984241 -12.409012 -17.472613 0.000000 0.000000 0.000000 7.125000 0.000000 0.000000 2.642882 10.945123 2.038769
8.641670 17.366767 19.337021 184.711376 -65.434458 -182.284361 0.000000 0.000000 0.000000 -4.724195 -1.613435 -10.430165 3.617916 11.633653 34.448259 1.451364 0.081040 -22.823699 0.429664 -4.198286 -11.636296 0.000000 0.000000 0.000000 2.579416 8.543793 -12.651717 -1.458071 -7.631771 21.601233 0.309827 -13.273739 -14.389818 -0.019639 -0.482071 1.326069 -4.632673 -6.355237 11.573790 1.857835 -9.009323 1.404988 5.781801 -4.425053 -3.939888 -18.059035 -16.027860 4.740065 19.924892 -23.739849 3.459918 7.421198 -12.042715 4.854715 0.000000 0.000000 0.000000 4.648489 -2.158660 -53.341318 58.707829 -55.951929 33.268990 -1.883547 5.985811 -28.304329 0.000000 0.000000 0.000000 -7.125000 0.000000 0.000000 -34.094629 54.817124 9.001204 0.000000 0.000000 0.000000 -18.702368 -2.491288 15.053870 -126.178852 -54.424048 -90.745012 -38.219962 -32.169005 -24.009785 0.000000 0.000000 0.000000 7.125000 0.000000 0.000000 -5.351307 0.541436 -5.322837
8.656395 17.371224 19.353564 185.392554 -63.940387 -182.857888 0.000000 0.000000 0.000000 -4.328947 -0.309760 -10.105828 3.497373 11.459745 33.846535 1.426860 0.056510 -22.621652 0.385005 -3.983366 -11.030045 0.000000 0.000000 0.000000 3.115993 7.126901 -13.014757 -1.282053 -7.174649 20.234072 0.405864 -14.321851 -14.808601 -0.001440 -0.235373 0.646727 -5.023888 -6.480805 11.519876 2.179708 -9.212439 1.272566 6.352741 -4.519844 -3.909071 -17.474014 -15.540235 4.379636 18.581326 -23.008169 4.562179 7.005717 -11.648556 4.860197 0.000000 0.000000 0.000000 4.966677 -9.875959 -63.865658 63.686164 -57.212070 37.425169 -0.249321 3.480353 -27.438345 0.000000 0.000000 0.000000 -7.125000 0.000000 0.000000 -31.919374 54.398238 7.987427 0.000000 0.000000 0.000000 -23.043507 -8.777275 3.903864 -121.428410 -55.910569 -86.843259 -36.008402 -24.240223 -17.132313 0.000000 0.000000 0.000000 7.125000 0.000000 0.000000 -5.238487 9.162697 -4.384903
8.663031 17.386413 19.375393 185.074674 -62.690808 -182.239255 0.000000 0.000000 0.000000 -4.513642 0.527281 -10.212881 3.442373 11.378858 33.568549 1.428335 0.310977 -22.720741 0.447035 -4.287512 -11.887346 0.000000 0.000000 0.000000 3.150938 5.519195 -13.929354 -1.179574 -6.893067 19.398900 0.617932 -16.307155 -15.416405 -0.026120 -0.962714 2.646655 -5.118219 -6.866578 11.240264 2.231407 -9.716791 0.894327 6.501860 -4.747619 -4.059508 -18.752933 -14.842570 4.355439 18.576635 -22.409123 6.244005 7.222059 -11.370256 5.406586 0.000000 0.000000 0.000000 4.827694 -18.918385 -72.436672 68.353841 -58.151912 41.370373 -3.323500 -1.211350 -26.992857 0.000000 0.000000 0.000000 -7.125000 0.000000 0.000000 -34.427643 53.459729 7.897268 0.000000 0.000000 0.000000 -27.150792 -14.361657 -5.580525 -114.534119 -57.594181 -81.075023 -27.236873 -14.527855 -11.480520 0.000000 0.000000 0.000000 7.125000 0.000000 0.000000 -0.057362 17.109782 -0.042127
8.669708 17.398849 19.339911 185.670800 -61.128413 -182.873865 0.000000 0.000000 0.000000 -4.006536 1.726729 -9.583276 3.328448 11.208597 32.986754 1.375006 1.054867 -22.567821 0.582910 -4.888670 -13.591218 0.000000 0.000000 0.000000 3.844479 5.239537 -14.325233 -1.169523 -6.864579 19.314661 0.767633 -18.021523 -16.947122 -0.205930 -2.921436 8.059971 -4.922877 -7.040687 11.622267 2.185640 -9.940116 0.583854 6.463509 -4.823487 -4.607913 -18.744722 -14.519384 4.397419 18.239833 -22.119403 7.109516 7.152844 -11.244205 5.563367 0.000000 0.000000 0.000000 3.978136 -27.842323 -77.839580 70.806463 -58.561107 43.458228 -5.421077 -4.021525 -23.509025 0.000000 0.000000 0.000000 -7.125000 0.000000 0.000000 -33.913772 50.193566 4.831810 0.000000 0.000000 0.000000 -30.509438 -17.879742 -9.666438 -106.806809 -58.903196 -74.501320 -24.840340 -15.488705 -9.818605 0.000000 0.000000 0.000000 7.125000 0.000000 0.000000 1.527689 19.184489 0.940722
8.690510 17.396783 19.253947 185.225541 -59.376331 -181.981232 0.000000 0.000000 0.000000 -3.856819 3.178168 -9.510919 3.203441 11.017329 32.338360 1.358675 1.569005 -22.641560 0.650264 -5.158004 -14.359886 0.000000 0.000000 0.000000 4.254820 4.420449 -15.944772 -1.211698 -6.983008 19.665104 1.068984 -19.798957 -16.500076 -0.270348 -3.342806 9.234691 -5.876120 -7.116896 11.003328 2.307881 -10.126616 0.570236 7.019648 -4.926290 -4.069615 -18.783207 -14.501100 3.747324 18.291676 -22.076763 7.494060 7.116439 -11.188688 5.791790 0.000000 0.000000 0.000000 1.806068 -36.749806 -81.207140 70.938659 -58.581616 43.571009 -7.260980 -7.128762 -21.971779 0.000000 0.000000 0.000000 -7.125000 0.000000 0.000000 -34.555563 48.624359 3.475945 0.000000 0.000000 0.000000 -33.783865 -20.738587 -10.354651 -99.591412 -59.648372 -68.296519 -25.145917 -15.454989 -10.270541 0.000000 0.000000 0.000000 7.125000 0.000000 0.000000 1.339235 18.654184 0.828364
